<svg viewBox="0 0 65.47 100.44" height="100.44" width="65.47" xmlns="http://www.w3.org/2000/svg" data-name="Camada 2" id="Camada_2">
  <defs>
    <style>
      .cls-1 {
        fill: #7c4a0e;
      }

      .cls-1, .cls-2, .cls-3, .cls-4, .cls-5, .cls-6, .cls-7, .cls-8, .cls-9, .cls-10, .cls-11 {
        stroke-width: 0px;
      }

      .cls-3 {
        fill: #f6be5f;
      }

      .cls-4 {
        fill: #ff8b00;
      }

      .cls-5 {
        fill: #bc8a8a;
      }

      .cls-6 {
        fill: #e85c5b;
      }

      .cls-7 {
        fill: #134a9a;
      }

      .cls-8 {
        fill: #bcbcbc;
      }

      .cls-9 {
        fill: #5b5a59;
      }

      .cls-10 {
        fill: #ffdbac;
      }

      .cls-11 {
        fill: #dcb52a;
      }
    </style>
  </defs>
  <g data-name="Camada 1" id="Camada_1-2">
    <g>
      <g>
        <path d="m49.75,97.82c.32.12.52.43.48.77-.05.43-.24.97-.82,1.21,0,0-3.41.93-6.91.55-.04,0-.08-.01-.12-.02l-6.36-1.66c-.22-.06-.41-.22-.5-.43-.08-.19-.15-.43-.17-.7-.02-.37.26-.69.63-.75l7.56-1.15c.12-.02.25,0,.37.04l5.84,2.14Z" class="cls-1"></path>
        <path d="m47.93,96.04s2.23,1.41,1.45,2c0,0-1.01.52-2.75.58-.33.01-.65-.13-.87-.38l-.69-.79s.67-2.31,2.86-1.41Z" class="cls-10"></path>
        <path d="m38.53,97.56s2.58,1.02,3.56,1.17c.71.11,1.78.17,2.45.11.36-.03.65-.31.68-.67.02-.25,0-.54-.16-.73-.35-.43-1.92-1.92-2.94-1.84s-3.21,1.25-3.6,1.96Z" class="cls-10"></path>
        <path d="m47.57,95.8s-1.33-2.35-4.23-2.78c0,0-1.21-3.33-.82-6.97l-6.34.78s1.25,5,.51,6.56c-.02.05-.05.1-.08.14-.9,1.37-.51,3.21-.51,3.21l2.43.82s1.8-1.84,3.6-1.96,2.94,1.84,2.94,1.84c0,0,.35-1.84,2.51-1.64Z" class="cls-10"></path>
        <path d="m38.53,97.78s-.07,0-.1-.03l-.43-.23c-.1-.05-.14-.17-.1-.27,2.1-5.54,5.18-4.53,7.03-3.93,1.87.61,3.13,2.52,3.19,2.6.05.08.05.19-.02.26-.06.07-.16.1-.25.06-.66-.28-1.22-.31-1.65-.08-.71.38-.9,1.32-.91,1.33-.02.08-.08.15-.16.17-.08.02-.16,0-.22-.06-1.09-1.2-2.2-1.78-3.31-1.7-1.72.12-2.88,1.78-2.89,1.8-.04.06-.11.09-.18.09Zm-.16-.55l.1.05c.36-.45,1.48-1.72,3.1-1.83,1.15-.08,2.3.45,3.4,1.57.14-.38.44-.94,1.01-1.24.39-.21.85-.26,1.36-.16-.5-.59-1.41-1.52-2.53-1.88-1.8-.59-4.48-1.46-6.44,3.49Z" class="cls-4"></path>
        <path d="m16.03,97.82c-.32.12-.52.43-.48.77.05.43.24.97.82,1.21,0,0,3.41.93,6.91.55.04,0,.08-.01.12-.02l6.36-1.66c.22-.06.41-.22.5-.43.08-.19.15-.43.17-.7.02-.37-.26-.69-.63-.75l-7.56-1.15c-.12-.02-.25,0-.37.04l-5.84,2.14Z" class="cls-1"></path>
        <path d="m17.85,96.04s-2.23,1.41-1.45,2c0,0,1.01.52,2.75.58.33.01.65-.13.87-.38l.69-.79s-.67-2.31-2.86-1.41Z" class="cls-10"></path>
        <path d="m27.25,97.56s-2.58,1.02-3.56,1.17c-.71.11-1.78.17-2.45.11-.36-.03-.65-.31-.68-.67-.02-.25,0-.54.16-.73.35-.43,1.92-1.92,2.94-1.84s3.21,1.25,3.6,1.96Z" class="cls-10"></path>
        <path d="m18.21,95.8s1.33-2.35,4.23-2.78c0,0,1.21-3.33.82-6.97l6.34.78s-1.25,5-.51,6.56c.02.05.05.1.08.14.9,1.37.51,3.21.51,3.21l-2.43.82s-1.8-1.84-3.6-1.96-2.94,1.84-2.94,1.84c0,0-.35-1.84-2.51-1.64Z" class="cls-10"></path>
        <rect height="20.36" width="14.31" y="50.42" x="26.44" class="cls-10"></rect>
        <g>
          <rect transform="translate(-36.12 54.51) rotate(-55.58)" height="14.87" width="1.31" y="54.09" x="32.99" class="cls-5"></rect>
          <rect transform="translate(-31.36 35.14) rotate(-39.64)" height="1.31" width="12.27" y="60.42" x="26.94" class="cls-5"></rect>
        </g>
        <polygon points="35.21 84.36 42.52 83.21 41.48 78.51 41.48 70.89 24.14 70.89 24.14 78.51 23.1 83.21 30.41 84.36 31.89 78.51 33.73 78.51 35.21 84.36" class="cls-7"></polygon>
        <path d="m14.83,62.97l3.09.95c.34.11.54.47.43.81l-1.75,5.69c-.37,1.2-1.64,1.87-2.84,1.5h0c-1.2-.37-1.87-1.64-1.5-2.84l1.75-5.69c.11-.34.47-.54.81-.43Z" class="cls-10"></path>
        <rect ry="1.2" rx="1.2" height="4.91" width="18.8" y="67.96" x="23.73" class="cls-11"></rect>
        <rect transform="translate(89.29 162.96) rotate(171.96)" ry="2.45" rx="2.45" height="4.91" width="9.03" y="82.16" x="34.4" class="cls-8"></rect>
        <rect transform="translate(12.07 -2.89) rotate(8.04)" ry="2.45" rx="2.45" height="4.91" width="9.03" y="81.95" x="22.08" class="cls-8"></rect>
        <path d="m29.26,52.09l-6.08-.78s-8.97,4.66-11.24,13.89c-.13.54.2,1.09.74,1.23l5.14,1.28c.54.14,1.09-.2,1.22-.74.72-2.92,2.05-5.01,3.54-6.95h0c1.22,3.8.77,8.43.44,10.67-.09.6.57,1.03,1.08.7.73-.47,1.51-1.14,2.25-1.86,2.72-2.62,4.44-6.12,4.89-9.87.08-.7.16-1.46.21-2.26.31-4.8-2.19-5.33-2.19-5.33Z" class="cls-6"></path>
        <path d="m51.84,62.97l-3.09.95c-.34.11-.54.47-.43.81l1.75,5.69c.37,1.2,1.64,1.87,2.84,1.5h0c1.2-.37,1.87-1.64,1.5-2.84l-1.75-5.69c-.11-.34-.47-.54-.81-.43Z" class="cls-10"></path>
        <path d="m37.41,52.09l6.34-.63s8.71,4.5,10.98,13.73c.13.54-.2,1.09-.74,1.23l-5.14,1.28c-.54.14-1.09-.2-1.22-.74-.72-2.92-2.05-5.01-3.54-6.95h0c-1.22,3.8-.77,8.43-.44,10.67.09.6-.57,1.03-1.08.7-.73-.47-1.51-1.14-2.25-1.86-2.72-2.62-4.44-6.12-4.89-9.87-.08-.7-.16-1.46-.21-2.26-.31-4.8,2.19-5.33,2.19-5.33Z" class="cls-6"></path>
        <path d="m27.25,97.78c-.07,0-.14-.03-.18-.09-.01-.02-1.17-1.68-2.89-1.8-1.11-.07-2.22.5-3.31,1.7-.06.06-.14.08-.22.06-.08-.02-.14-.09-.16-.17,0,0-.2-.95-.91-1.33-.44-.23-.99-.21-1.65.08-.09.04-.19.01-.25-.06-.06-.07-.07-.18-.02-.26.05-.08,1.32-1.99,3.17-2.59,1.86-.61,4.94-1.61,7.05,3.93.04.1,0,.22-.1.27l-.43.23s-.07.03-.1.03Zm-3.27-2.33c.08,0,.15,0,.23,0,1.62.11,2.75,1.37,3.1,1.83l.1-.05c-1.95-4.96-4.63-4.08-6.42-3.5-1.13.37-2.05,1.29-2.55,1.89.51-.1.96-.05,1.36.16.57.3.87.87,1.01,1.24,1.03-1.05,2.1-1.58,3.17-1.58Z" class="cls-4"></path>
      </g>
      <path d="m14.96,35.8l-.44.35-.71-10.89-3.62-1.15s-8.72,7.41-6.25,13.42c0,0,3.76-2.24,7.32-6.64-1.81,2.4-6.33,8.98-4.6,12.56,0,0,1.47-.65,3.17-1.72.06,2.12.53,5.42,2.84,6.08l2.3-4.94-.38-5.73c.2-.44.34-.89.38-1.34Z" class="cls-9"></path>
      <rect ry="19.48" rx="19.48" height="41.15" width="43.33" y="12.56" x="11.96" class="cls-10"></rect>
      <circle r="3.03" cy="34.99" cx="26.35" class="cls-2"></circle>
      <circle r="3.03" cy="34.99" cx="49.53" class="cls-2"></circle>
      <rect height="1.31" width="6.27" y="41.57" x="34.77" class="cls-2"></rect>
      <path d="m17.18,40.32h-3.46c-4,0-7.24-3.24-7.24-7.24h0c0-4,3.24-7.24,7.24-7.24h3.46s0,14.48,0,14.48Z" class="cls-10"></path>
      <path d="m51.82,19.56c1.67,1.47,4.23-.22,3.52-2.33C51.95,7.21,42.48,0,31.31,0S10.23,7.56,7.06,17.95c-.64,2.09,1.89,3.69,3.54,2.26,4.13-3.59,11.12-7.74,21.33-7.74,9.61,0,16.01,3.67,19.88,7.09Z" class="cls-3"></path>
      <path d="m52.71,18.7c1.67,1.47,4.44-.3,3.52-2.33-2.83-6.2-12.83-8.2-24-8.2s-22.9,2.95-25.31,8.94c-.82,2.03,1.89,3.69,3.54,2.26,4.13-3.59,11.53-5.94,21.75-5.94,9.61,0,16.62,1.84,20.5,5.26Z" class="cls-6"></path>
      <path d="m5.01,27.6s-.02,0,0,0c0,0,17.39-17.95,46.94-7.22,2.66.97,4.94,2.75,6.57,5.06.92,1.7,1.86,3.83,2.12,5.83.06.44-.44.73-.79.47-.53-.39-1.22-.96-1.85-1.65-.31,2.5-1.34,3.84-1.74,4.83-.26.67-1.39.8-1.52.1-1.27-6.82-8.51-14.89-8.51-14.89,1.72,4.25.03,9.14-.05,11.71-.02.75-.95,1.08-1.46.53-3.67-4.03-6.55-11.91-6.55-11.91,0,8.64-.35,13.27-.59,15.46-.08.71-.95.99-1.45.47-6.29-6.64-8.33-16.42-8.33-16.42-1.07,3.58-4.31,8.1-6.01,10.33-.44.58-1.37.34-1.49-.38-.6-3.61.25-7.15.25-7.15-2.12,1-5.18,7.38-6.55,10.42-.31.69-1.32.65-1.55-.07-.38-1.16-.56-2.6-.62-4.09-1.28.64-2.8,1.22-3.77,1.56-.6.21-1.21.36-1.83.46-1.59.25-2.63.63-3.99-.15-.38-.21-.45-.75-.11-1.02l2.88-2.27" class="cls-9"></path>
      <path d="m36.44,12.22c-.72-.03-1.44-.04-2.17-.04-2.58,0-5.19.14-7.74.4C14.02,13.85,2.65,18.01.28,22.89c-.56,1.16-.24,2.57.72,3.43,1.12,1,1.96,1.05,3.96,1.28.02,0,.03,0,.05,0,0,0,17.39-17.95,46.94-7.22,2.66.97,4.94,2.75,6.57,5.06.16.23.33.46.48.7h0s4.21,1.28,6.32-2.39c1.85-3.21-12.69-10.88-28.87-11.53Z" class="cls-3"></path>
      <path d="m27.05,41.4c-5.71,0-6.48-4.53-6.49-4.58l.43-.07c.03.18.77,4.43,6.46,4.2l.02.44c-.14,0-.28,0-.42,0Z" class="cls-2"></path>
      <rect transform="translate(-15.28 14.16) rotate(-27.57)" height=".44" width="2.03" y="38.01" x="20.2" class="cls-2"></rect>
      <rect transform="translate(-22.03 29.82) rotate(-47.21)" height=".44" width="2.03" y="39.89" x="22.08" class="cls-2"></rect>
      <rect transform="translate(-18.45 61.21) rotate(-82.48)" height=".44" width="2.03" y="40.91" x="24.67" class="cls-2"></rect>
      <rect ry=".7" rx=".7" height="6.74" width="2.43" y="70.49" x="37.74" class="cls-11"></rect>
    </g>
  </g>
</svg>